<?xml version="1.0" encoding="utf-8" standalone="no"?>
<!DOCTYPE svg PUBLIC "-//W3C//DTD SVG 1.1//EN" "http://www.w3.org/Graphics/SVG/1.1/DTD/svg11.dtd">
<svg xmlns="http://www.w3.org/2000/svg" xmlns:xl="http://www.w3.org/1999/xlink" version="1.1" viewBox="0 0 1700.7874 850.3937" width="1700.7874pt" height="850.3937pt" xmlns:dc="http://purl.org/dc/elements/1.1/"><metadata> Produced by OmniGraffle 6.1.3 <dc:date>2015-02-06 16:42:26 +0000</dc:date></metadata><defs/><g stroke="none" stroke-opacity="1" stroke-dasharray="none" fill="none" fill-opacity="1"><title>cutter</title><g><title>Layer 1</title><path d="M 283.11024 283.46457 L 283.11024 291.9685 L 312.16536 291.9685 L 312.16536 283.46457 L 339.80316 283.46457 L 339.80316 291.9685 L 368.85828 291.9685 L 368.85828 283.46457 L 396.49607 283.46457 L 396.49607 291.9685 L 425.5512 291.9685 L 425.5512 283.46457 L 445.03937 283.46457 L 445.03937 255.11811 L 453.5433 255.11811 L 453.5433 226.77165 L 445.03937 226.77165 L 445.03937 198.4252 L 453.5433 198.4252 L 453.5433 170.07874 L 445.03937 170.07874 L 445.03937 141.73228 L 453.5433 141.73228 L 453.5433 113.385826 L 445.03937 113.385826 L 445.03937 85.03937 L 453.5433 85.03937 L 453.5433 56.692912 L 445.03937 56.692912 L 445.03937 28.346456 L 425.19686 28.346456 L 425.19686 36.850393 L 396.8504 36.850393 L 396.8504 28.346456 L 368.50394 28.346456 L 368.50394 36.850393 L 340.15749 36.850393 L 340.15749 28.346456 L 311.81103 28.346456 L 311.81103 36.850393 L 283.46457 36.850393 L 283.46457 28.346456 L 263.62205 28.346456 L 263.62205 56.692912 L 255.11811 56.692912 L 255.11811 85.03937 L 263.62205 85.03937 L 263.62205 113.385826 L 255.11811 113.385826 L 255.11811 141.73228 L 263.62205 141.73228 L 263.62205 170.07874 L 255.11811 170.07874 L 255.11811 198.4252 L 263.62205 198.4252 L 263.62205 226.77165 L 255.11811 226.77165 L 255.11811 255.11811 L 263.62205 255.11811 L 263.62205 283.46457 Z M 337.32283 226.77165 L 371.33858 226.77165 L 371.33858 252.28346 L 337.32283 252.28346 Z" stroke="black" stroke-linecap="round" stroke-linejoin="round" stroke-width=".5"/><path d="M 82.204724 379.84252 L 172.91338 379.84252 L 172.91338 470.55118 L 82.204724 470.55118 Z M 101.560886 524.8958 C 105.9889 529.3238 105.9889 536.50297 101.560886 540.93096 C 97.1329 545.35897 89.953715 545.35897 85.525727 540.93096 C 81.097715 536.50297 81.097715 529.3238 85.525727 524.8958 C 89.953715 520.4678 97.1329 520.4678 101.560886 524.8958 M 169.59238 524.8958 C 174.02039 529.3238 174.02039 536.50297 169.59238 540.93096 C 165.16439 545.35897 157.98521 545.35897 153.55722 540.93096 C 149.12921 536.50297 149.12921 529.3238 153.55722 524.8958 C 157.98521 520.4678 165.16439 520.4678 169.59238 524.8958 M 68.031496 382.67716 L 76.535433 382.67716 L 76.535433 411.02362 L 68.031496 411.02362 Z M 68.031496 439.37008 L 76.535433 439.37008 L 76.535433 467.71653 L 68.031496 467.71653 Z M 178.58268 382.67716 L 187.08661 382.67716 L 187.08661 411.02362 L 178.58268 411.02362 Z M 178.58268 439.37008 L 187.08661 439.37008 L 187.08661 467.71653 L 178.58268 467.71653 Z M 56.338585 595.2756 L 56.338585 603.77952 L 85.393704 603.77952 L 85.393704 595.2756 L 113.0315 595.2756 L 113.0315 603.77952 L 142.08662 603.77952 L 142.08662 595.2756 L 169.72442 595.2756 L 169.72442 603.77952 L 198.77953 603.77952 L 198.77953 595.2756 L 218.26772 595.2756 L 218.26772 566.92913 L 226.77165 566.92913 L 226.77165 538.58267 L 218.26772 538.58267 L 218.26772 510.23622 L 226.77165 510.23622 L 226.77165 481.88976 L 218.26772 481.88976 L 218.26772 453.5433 L 226.77165 453.5433 L 226.77165 425.19685 L 218.26772 425.19685 L 218.26772 396.8504 L 226.77165 396.8504 L 226.77165 368.50393 L 218.26772 368.50393 L 218.26772 340.15748 L 198.4252 340.15748 L 198.4252 348.66142 L 170.07874 348.66142 L 170.07874 340.15748 L 141.73228 340.15748 L 141.73228 348.66142 L 113.385826 348.66142 L 113.385826 340.15748 L 85.03937 340.15748 L 85.03937 348.66142 L 56.692913 348.66142 L 56.692913 340.15748 L 36.850394 340.15748 L 36.850394 368.50393 L 28.34645 368.50393 L 28.34645 396.8504 L 36.850394 396.8504 L 36.850394 425.19685 L 28.34645 425.19685 L 28.34645 453.5433 L 36.850394 453.5433 L 36.850394 481.88976 L 28.34645 481.88976 L 28.34645 510.23622 L 36.850394 510.23622 L 36.850394 538.58267 L 28.34645 538.58267 L 28.34645 566.92913 L 36.850394 566.92913 L 36.850394 595.2756 Z" stroke="black" stroke-linecap="round" stroke-linejoin="round" stroke-width=".5"/><path d="M 311.4567 595.2756 L 311.4567 603.77952 L 340.51182 603.77952 L 340.51182 595.2756 L 368.14962 595.2756 L 368.14962 603.77952 L 397.20474 603.77952 L 397.20474 595.2756 L 424.84253 595.2756 L 424.84253 603.77952 L 453.89765 603.77952 L 453.89765 595.2756 L 473.38582 595.2756 L 473.38582 595.2756 L 490.3937 595.2756 L 490.3937 566.5748 L 481.88977 566.5748 L 481.88977 538.937 L 490.3937 538.937 L 490.3937 509.8819 L 481.88977 509.8819 L 481.88977 482.2441 L 490.3937 482.2441 L 490.3937 453.18898 L 481.88977 453.18898 L 481.88977 425.55118 L 490.3937 425.55118 L 490.3937 396.49606 L 481.88977 396.49606 L 481.88977 368.85827 L 490.3937 368.85827 L 490.3937 340.15748 L 481.88977 340.15748 L 481.88977 340.15748 L 453.5433 340.15748 L 453.5433 348.66142 L 425.19685 348.66142 L 425.19685 340.15748 L 396.8504 340.15748 L 396.8504 348.66142 L 368.50393 348.66142 L 368.50393 340.15748 L 340.15748 340.15748 L 340.15748 348.66142 L 311.81102 348.66142 L 311.81102 340.15748 L 283.46457 340.15748 L 283.46457 340.15748 L 274.96063 340.15748 L 274.96063 368.85827 L 283.46457 368.85827 L 283.46457 396.49606 L 274.96063 396.49606 L 274.96063 425.55118 L 283.46457 425.55118 L 283.46457 453.18898 L 274.96063 453.18898 L 274.96063 482.2441 L 283.46457 482.2441 L 283.46457 509.8819 L 274.96063 509.8819 L 274.96063 538.937 L 283.46457 538.937 L 283.46457 566.5748 L 274.96063 566.5748 L 274.96063 595.2756 L 291.9685 595.2756 L 291.9685 595.2756 Z" stroke="black" stroke-linecap="round" stroke-linejoin="round" stroke-width=".5"/><path d="M 56.338585 226.77165 L 56.338585 235.27559 L 85.393704 235.27559 L 85.393704 226.77165 L 113.0315 226.77165 L 113.0315 235.27559 L 142.08662 235.27559 L 142.08662 226.77165 L 169.72442 226.77165 L 169.72442 235.27559 L 198.77953 235.27559 L 198.77953 226.77165 L 218.26772 226.77165 L 218.26772 198.77953 L 226.77165 198.77953 L 226.77165 169.72441 L 218.26772 169.72441 L 218.26772 142.08662 L 226.77165 142.08662 L 226.77165 113.0315 L 218.26772 113.0315 L 218.26772 85.393703 L 226.77165 85.393703 L 226.77165 56.338584 L 218.26772 56.338584 L 218.26772 28.34645 L 198.77953 28.34645 L 198.77953 19.84252 L 169.72442 19.84252 L 169.72442 28.34645 L 142.08662 28.34645 L 142.08662 19.84252 L 113.0315 19.84252 L 113.0315 28.34645 L 85.393704 28.34645 L 85.393704 19.84252 L 56.338585 19.84252 L 56.338585 28.34645 L 36.850396 28.34645 L 36.850396 56.338584 L 28.346457 56.338584 L 28.346457 85.393703 L 36.850396 85.393703 L 36.850396 113.0315 L 28.346457 113.0315 L 28.346457 142.08662 L 36.850396 142.08662 L 36.850396 169.72441 L 28.346457 169.72441 L 28.346457 198.77953 L 36.850396 198.77953 L 36.850396 226.77165 Z" stroke="black" stroke-linecap="round" stroke-linejoin="round" stroke-width=".5"/><path d="M 538.58265 317.48031 L 538.58265 317.48031 C 530.755 317.48031 524.40945 323.82587 524.40945 331.65351 L 524.40945 603.77956 C 524.40945 611.6072 530.755 617.95276 538.58265 617.95276 L 793.7008 617.95276 C 801.52846 617.95276 807.874 611.6072 807.874 603.77956 L 807.874 331.65351 C 807.874 323.82587 801.52846 317.48031 793.7008 317.48031 Z M 595.2756 360 L 623.62205 360 L 623.62205 368.50393 L 595.2756 368.50393 Z M 651.9685 360 L 680.31497 360 L 680.31497 368.50393 L 651.9685 368.50393 Z M 708.66142 360 L 737.0079 360 L 737.0079 368.50393 L 708.66142 368.50393 Z M 595.2756 566.92913 L 623.62205 566.92913 L 623.62205 575.43307 L 595.2756 575.43307 Z M 651.9685 566.92913 L 680.31497 566.92913 L 680.31497 575.43307 L 651.9685 575.43307 Z M 708.66142 566.92913 L 737.0079 566.92913 L 737.0079 575.43307 L 708.66142 575.43307 Z M 756.8504 510.23622 L 765.35434 510.23622 L 765.35434 538.58267 L 756.8504 538.58267 Z M 756.8504 453.5433 L 765.35434 453.5433 L 765.35434 481.88976 L 756.8504 481.88976 Z M 756.8504 396.8504 L 765.35434 396.8504 L 765.35434 425.19685 L 756.8504 425.19685 Z M 566.92914 396.8504 L 575.43308 396.8504 L 575.43308 425.19685 L 566.92914 425.19685 Z M 566.92914 453.5433 L 575.43308 453.5433 L 575.43308 481.88976 L 566.92914 481.88976 Z M 566.92914 510.23622 L 575.43308 510.23622 L 575.43308 538.58267 L 566.92914 538.58267 Z" stroke="black" stroke-linecap="round" stroke-linejoin="round" stroke-width=".5"/><path d="M 518.38584 283.46457 L 518.38584 291.9685 L 547.44095 291.9685 L 547.44095 283.46457 L 575.07875 283.46457 L 575.07875 291.9685 L 604.13387 291.9685 L 604.13387 283.46457 L 631.77167 283.46457 L 631.77167 291.9685 L 660.8268 291.9685 L 660.8268 283.46457 L 680.31496 283.46457 L 680.31496 283.46458 L 697.32283 283.46458 L 697.32283 254.76379 L 688.8189 254.76379 L 688.8189 227.12599 L 697.32283 227.12599 L 697.32283 198.07087 L 688.8189 198.07087 L 688.8189 170.43308 L 697.32283 170.43308 L 697.32283 141.37796 L 688.8189 141.37796 L 688.8189 113.74016 L 697.32283 113.74016 L 697.32283 84.685043 L 688.8189 84.685043 L 688.8189 57.047247 L 697.32283 57.047247 L 697.32283 28.346458 L 688.8189 28.346458 L 688.8189 28.346457 L 660.47244 28.346457 L 660.47244 36.850394 L 632.12598 36.850394 L 632.12598 28.346457 L 603.77952 28.346457 L 603.77952 36.850394 L 575.43307 36.850394 L 575.43307 28.346457 L 547.0866 28.346457 L 547.0866 36.850394 L 518.74015 36.850394 L 518.74015 28.346457 L 490.3937 28.346457 L 490.3937 28.346458 L 481.88976 28.346458 L 481.88976 57.047247 L 490.3937 57.047247 L 490.3937 84.685043 L 481.88976 84.685043 L 481.88976 113.74016 L 490.3937 113.74016 L 490.3937 141.37796 L 481.88976 141.37796 L 481.88976 170.43308 L 490.3937 170.43308 L 490.3937 198.07087 L 481.88976 198.07087 L 481.88976 227.12599 L 490.3937 227.12599 L 490.3937 254.76379 L 481.88976 254.76379 L 481.88976 283.46458 L 498.89764 283.46458 L 498.89764 283.46457 Z" stroke="black" stroke-linecap="round" stroke-linejoin="round" stroke-width=".5"/><path d="M 742.67716 36.850393 L 742.67716 161.5748 L 873.07086 161.5748 L 873.07086 36.850393 Z M 771.3272 45.90112 C 772.4342 47.008118 772.4342 48.802914 771.3272 49.90991 C 770.2202 51.016914 768.4254 51.016914 767.3184 49.90991 C 766.2114 48.802914 766.2114 47.008118 767.3184 45.90112 C 768.4254 44.794118 770.2202 44.794118 771.3272 45.90112 M 848.4296 45.90112 C 849.5366 47.008118 849.5366 48.802914 848.4296 49.90991 C 847.3226 51.016914 845.5278 51.016914 844.4208 49.90991 C 843.3138 48.802914 843.3138 47.008118 844.4208 45.90112 C 845.5278 44.794118 847.3226 44.794118 848.4296 45.90112 M 771.3272 148.51533 C 772.4342 149.622325 772.4342 151.41712 771.3272 152.52412 C 770.2202 153.63112 768.4254 153.63112 767.3184 152.52412 C 766.2114 151.41712 766.2114 149.622325 767.3184 148.51533 C 768.4254 147.408325 770.2202 147.408325 771.3272 148.51533 M 848.4296 148.51533 C 849.5366 149.622325 849.5366 151.41712 848.4296 152.52412 C 847.3226 153.63112 845.5278 153.63112 844.4208 152.52412 C 843.3138 151.41712 843.3138 149.622325 844.4208 148.51533 C 845.5278 147.408325 847.3226 147.408325 848.4296 148.51533 M 779.52755 56.692913 L 779.52755 42.519685 L 836.22047 42.519685 L 836.22047 56.692913 L 853.22834 56.692913 L 853.22834 141.73228 L 836.22047 141.73228 L 836.22047 155.90551 L 779.52755 155.90551 L 779.52755 141.73228 L 762.5197 141.73228 L 762.5197 56.692913 Z M 748.34645 56.692913 L 756.8504 56.692913 L 756.8504 85.03937 L 748.34645 85.03937 Z M 748.34645 113.385826 L 756.8504 113.385826 L 756.8504 141.73228 L 748.34645 141.73228 Z M 858.89763 56.692913 L 867.40157 56.692913 L 867.40157 85.03937 L 858.89763 85.03937 Z M 858.89763 113.385826 L 867.40157 113.385826 L 867.40157 141.73228 L 858.89763 141.73228 Z" stroke="black" stroke-linecap="round" stroke-linejoin="round" stroke-width=".5"/><path d="M 771.0236 227.12598 L 771.0236 254.76378 L 762.5197 254.76378 L 762.5197 283.8189 L 771.0236 283.8189 L 771.0236 291.9685 L 790.86614 291.9685 L 790.86614 283.8189 L 799.37007 283.8189 L 799.37007 254.76378 L 790.86614 254.76378 L 790.86614 227.12598 L 799.37007 227.12598 L 799.37007 198.07086 L 790.86614 198.07086 L 790.86614 189.92126 L 771.0236 189.92126 L 771.0236 198.07086 L 762.5197 198.07086 L 762.5197 227.12598 Z" stroke="black" stroke-linecap="round" stroke-linejoin="round" stroke-width=".5"/><path d="M 827.71653 227.12598 L 827.71653 254.76378 L 819.2126 254.76378 L 819.2126 283.8189 L 827.71653 283.8189 L 827.71653 291.9685 L 847.55905 291.9685 L 847.55905 283.8189 L 856.063 283.8189 L 856.063 254.76378 L 847.55905 254.76378 L 847.55905 227.12598 L 856.063 227.12598 L 856.063 198.07086 L 847.55905 198.07086 L 847.55905 189.92126 L 827.71653 189.92126 L 827.71653 198.07086 L 819.2126 198.07086 L 819.2126 227.12598 Z" stroke="black" stroke-linecap="round" stroke-linejoin="round" stroke-width=".5"/></g></g></svg>
